<svg width="23" height="13" viewBox="0 0 23 13" fill="none" xmlns="http://www.w3.org/2000/svg">
<path d="M2.58898 0H0.243257C0.0399404 0 -0.0723389 0.210294 0.0520786 0.35231L10.7368 12.664C10.8272 12.7686 10.9429 12.8533 11.0752 12.9115C11.2075 12.9697 11.3528 13 11.5 13C11.6472 13 11.7925 12.9697 11.9248 12.9115C12.0571 12.8533 12.1728 12.7686 12.2632 12.664L22.9479 0.35231C23.0723 0.207562 22.9601 0 22.7567 0H20.411C20.2623 0 20.1197 0.0628138 20.0287 0.166595L11.5015 9.9985L2.97134 0.166595C2.8803 0.0628138 2.73767 0 2.58898 0Z" fill="white"/>
</svg>
